<svg xmlns="http://www.w3.org/2000/svg" width="14" height="14" viewBox="0 0 14 14">
  <path id="Subtraction_14" data-name="Subtraction 14" d="M7,14a7,7,0,1,1,7-7A7.008,7.008,0,0,1,7,14ZM5.467,3.5A1.548,1.548,0,0,0,4.2,4.015,2.009,2.009,0,0,0,4.11,5.746a.422.422,0,0,0-.14.328.538.538,0,0,0,.28.468,1.55,1.55,0,0,0,.515.8V7.9c-.1.312-.4.391-.734.483C3.453,8.538,2.8,8.714,2.8,10.1H6.168A1.687,1.687,0,0,1,7.2,8.46a3.216,3.216,0,0,0-.354-.126c-.308-.1-.574-.179-.675-.483V7.29a1.311,1.311,0,0,0,.514-.8c0-.056.017-.181.03-.272V6.215c.009-.066.017-.123.017-.142a4.322,4.322,0,0,1,.234-1.591c-.117-.472-.347-.7-.7-.7-.086-.173-.391-.281-.8-.281Zm3.556.281a.826.826,0,0,0-.561.28h0a1.014,1.014,0,0,0-.749.275A2.881,2.881,0,0,0,7.3,6.293c0,.555.006,1.033-.2,1.184,0,0,.3.421,1.31.421v.327c-.113.3-.409.437-.723.579-.473.215-.962.437-.962,1.246h4.492c0-.809-.489-1.031-.962-1.246-.313-.142-.609-.277-.723-.579V7.851h0c1.009,0,1.257-.37,1.259-.374-.186-.156-.2-.622-.221-1.161a5.128,5.128,0,0,0-.242-1.678A1.287,1.287,0,0,0,9.023,3.781Z" fill="#414042"/>
</svg>
